HIERARCHY
ROOT mixamorig:Hips
{
	OFFSET 0.000000 103.991501 0.000000
	CHANNELS 6 Xposition Yposition Zposition Xrotation Yrotation Zrotation
	JOINT mixamorig:Spine
	{
		OFFSET 0.000000 10.181602 0.131500
		CHANNELS 6 Xposition Yposition Zposition Xrotation Yrotation Zrotation
		JOINT mixamorig:Spine1
		{
			OFFSET 0.000000 10.083504 -1.000800
			CHANNELS 6 Xposition Yposition Zposition Xrotation Yrotation Zrotation
			JOINT mixamorig:Spine2
			{
				OFFSET 0.000000 9.100006 -1.373400
				CHANNELS 6 Xposition Yposition Zposition Xrotation Yrotation Zrotation
				JOINT mixamorig:Neck
				{
					OFFSET 0.000000 16.671707 -2.516200
					CHANNELS 6 Xposition Yposition Zposition Xrotation Yrotation Zrotation
					JOINT mixamorig:Head
					{
						OFFSET 0.000000 9.617905 1.685000
						CHANNELS 6 Xposition Yposition Zposition Xrotation Yrotation Zrotation
						JOINT mixamorig:HeadTop_End
						{
							OFFSET 0.000000 17.815201 2.585000
							CHANNELS 6 Xposition Yposition Zposition Xrotation Yrotation Zrotation
							End Site
							{
								OFFSET 0.000000 13.794495 0.000000
							}
						}
						JOINT mixamorig:LeftEye
						{
							OFFSET 3.067600 6.409500 9.283600
							CHANNELS 6 Xposition Yposition Zposition Xrotation Yrotation Zrotation
							End Site
							{
								OFFSET 0.000000 13.794495 0.000000
							}
						}
						JOINT mixamorig:RightEye
						{
							OFFSET -3.067600 6.409500 9.283500
							CHANNELS 6 Xposition Yposition Zposition Xrotation Yrotation Zrotation
							End Site
							{
								OFFSET 0.000000 13.794495 0.000000
							}
						}
					}
				}
				JOINT mixamorig:LeftShoulder
				{
					OFFSET 4.570400 10.945999 -2.628000
					CHANNELS 6 Xposition Yposition Zposition Xrotation Yrotation Zrotation
					JOINT mixamorig:LeftArm
					{
						OFFSET 10.592400 -0.524597 -2.232100
						CHANNELS 6 Xposition Yposition Zposition Xrotation Yrotation Zrotation
						JOINT mixamorig:LeftForeArm
						{
							OFFSET 27.841499 0.000000 0.000000
							CHANNELS 6 Xposition Yposition Zposition Xrotation Yrotation Zrotation
							JOINT mixamorig:LeftHand
							{
								OFFSET 28.328800 0.000000 0.000000
								CHANNELS 6 Xposition Yposition Zposition Xrotation Yrotation Zrotation
								JOINT mixamorig:LeftHandThumb1
								{
									OFFSET 2.466103 -1.576218 2.681689
									CHANNELS 6 Xposition Yposition Zposition Xrotation Yrotation Zrotation
									JOINT mixamorig:LeftHandThumb2
									{
										OFFSET 3.229782 -1.864716 1.864716
										CHANNELS 6 Xposition Yposition Zposition Xrotation Yrotation Zrotation
										JOINT mixamorig:LeftHandThumb3
										{
											OFFSET 2.652611 -1.531494 1.531488
											CHANNELS 6 Xposition Yposition Zposition Xrotation Yrotation Zrotation
											JOINT mixamorig:LeftHandThumb4
											{
												OFFSET 1.954605 -1.128494 1.128493
												CHANNELS 6 Xposition Yposition Zposition Xrotation Yrotation Zrotation
												End Site
												{
													OFFSET -0.000404 2.523392 0.000683
												}
											}
										}
									}
								}
								JOINT mixamorig:LeftHandIndex1
								{
									OFFSET 9.109299 -0.518112 2.259867
									CHANNELS 6 Xposition Yposition Zposition Xrotation Yrotation Zrotation
									JOINT mixamorig:LeftHandIndex2
									{
										OFFSET 3.676399 0.000000 0.000000
										CHANNELS 6 Xposition Yposition Zposition Xrotation Yrotation Zrotation
										JOINT mixamorig:LeftHandIndex3
										{
											OFFSET 2.883102 0.000000 0.000000
											CHANNELS 6 Xposition Yposition Zposition Xrotation Yrotation Zrotation
											JOINT mixamorig:LeftHandIndex4
											{
												OFFSET 2.392700 0.000000 0.000000
												CHANNELS 6 Xposition Yposition Zposition Xrotation Yrotation Zrotation
												End Site
												{
													OFFSET 0.000000 2.392700 0.001080
												}
											}
										}
									}
								}
								JOINT mixamorig:LeftHandMiddle1
								{
									OFFSET 9.533401 0.000000 0.000000
									CHANNELS 6 Xposition Yposition Zposition Xrotation Yrotation Zrotation
									JOINT mixamorig:LeftHandMiddle2
									{
										OFFSET 3.698196 0.000000 0.000000
										CHANNELS 6 Xposition Yposition Zposition Xrotation Yrotation Zrotation
										JOINT mixamorig:LeftHandMiddle3
										{
											OFFSET 2.950897 0.000000 0.000000
											CHANNELS 6 Xposition Yposition Zposition Xrotation Yrotation Zrotation
											JOINT mixamorig:LeftHandMiddle4
											{
												OFFSET 2.833900 0.000000 0.000000
												CHANNELS 6 Xposition Yposition Zposition Xrotation Yrotation Zrotation
												End Site
												{
													OFFSET 0.000000 2.833893 0.001278
												}
											}
										}
									}
								}
								JOINT mixamorig:LeftHandRing1
								{
									OFFSET 9.104500 -0.043060 -1.865119
									CHANNELS 6 Xposition Yposition Zposition Xrotation Yrotation Zrotation
									JOINT mixamorig:LeftHandRing2
									{
										OFFSET 3.153999 0.000000 0.000000
										CHANNELS 6 Xposition Yposition Zposition Xrotation Yrotation Zrotation
										JOINT mixamorig:LeftHandRing3
										{
											OFFSET 2.937698 0.000000 0.000000
											CHANNELS 6 Xposition Yposition Zposition Xrotation Yrotation Zrotation
											JOINT mixamorig:LeftHandRing4
											{
												OFFSET 2.647499 0.000000 0.000000
												CHANNELS 6 Xposition Yposition Zposition Xrotation Yrotation Zrotation
												End Site
												{
													OFFSET 0.000000 2.647507 0.001195
												}
											}
										}
									}
								}
								JOINT mixamorig:LeftHandPinky1
								{
									OFFSET 8.077797 -0.486984 -3.806321
									CHANNELS 6 Xposition Yposition Zposition Xrotation Yrotation Zrotation
									JOINT mixamorig:LeftHandPinky2
									{
										OFFSET 3.599998 0.000000 0.000000
										CHANNELS 6 Xposition Yposition Zposition Xrotation Yrotation Zrotation
										JOINT mixamorig:LeftHandPinky3
										{
											OFFSET 2.114197 0.000000 0.000000
											CHANNELS 6 Xposition Yposition Zposition Xrotation Yrotation Zrotation
											JOINT mixamorig:LeftHandPinky4
											{
												OFFSET 1.975700 0.000000 0.000000
												CHANNELS 6 Xposition Yposition Zposition Xrotation Yrotation Zrotation
												End Site
												{
													OFFSET 0.000000 1.975693 0.000892
												}
											}
										}
									}
								}
							}
						}
					}
				}
				JOINT mixamorig:RightShoulder
				{
					OFFSET -4.570000 10.946198 -2.628000
					CHANNELS 6 Xposition Yposition Zposition Xrotation Yrotation Zrotation
					JOINT mixamorig:RightArm
					{
						OFFSET -10.592800 -0.524796 -2.232100
						CHANNELS 6 Xposition Yposition Zposition Xrotation Yrotation Zrotation
						JOINT mixamorig:RightForeArm
						{
							OFFSET -27.841499 0.000000 0.000000
							CHANNELS 6 Xposition Yposition Zposition Xrotation Yrotation Zrotation
							JOINT mixamorig:RightHand
							{
								OFFSET -28.328800 0.000000 0.000000
								CHANNELS 6 Xposition Yposition Zposition Xrotation Yrotation Zrotation
								JOINT mixamorig:RightHandPinky1
								{
									OFFSET -8.076698 -0.486725 -3.806227
									CHANNELS 6 Xposition Yposition Zposition Xrotation Yrotation Zrotation
									JOINT mixamorig:RightHandPinky2
									{
										OFFSET -3.599998 0.000000 0.000000
										CHANNELS 6 Xposition Yposition Zposition Xrotation Yrotation Zrotation
										JOINT mixamorig:RightHandPinky3
										{
											OFFSET -2.114197 0.000000 0.000000
											CHANNELS 6 Xposition Yposition Zposition Xrotation Yrotation Zrotation
											JOINT mixamorig:RightHandPinky4
											{
												OFFSET -1.975700 0.000000 0.000000
												CHANNELS 6 Xposition Yposition Zposition Xrotation Yrotation Zrotation
												End Site
												{
													OFFSET 0.000000 1.975693 0.000919
												}
											}
										}
									}
								}
								JOINT mixamorig:RightHandRing1
								{
									OFFSET -9.103600 -0.043030 -1.865120
									CHANNELS 6 Xposition Yposition Zposition Xrotation Yrotation Zrotation
									JOINT mixamorig:RightHandRing2
									{
										OFFSET -3.153999 0.000000 0.000000
										CHANNELS 6 Xposition Yposition Zposition Xrotation Yrotation Zrotation
										JOINT mixamorig:RightHandRing3
										{
											OFFSET -2.937698 0.000000 0.000000
											CHANNELS 6 Xposition Yposition Zposition Xrotation Yrotation Zrotation
											JOINT mixamorig:RightHandRing4
											{
												OFFSET -2.647499 0.000000 0.000000
												CHANNELS 6 Xposition Yposition Zposition Xrotation Yrotation Zrotation
												End Site
												{
													OFFSET 0.000000 2.647507 0.001231
												}
											}
										}
									}
								}
								JOINT mixamorig:RightHandMiddle1
								{
									OFFSET -9.532501 0.000000 0.000000
									CHANNELS 6 Xposition Yposition Zposition Xrotation Yrotation Zrotation
									JOINT mixamorig:RightHandMiddle2
									{
										OFFSET -3.698196 0.000000 0.000000
										CHANNELS 6 Xposition Yposition Zposition Xrotation Yrotation Zrotation
										JOINT mixamorig:RightHandMiddle3
										{
											OFFSET -2.950897 0.000000 0.000000
											CHANNELS 6 Xposition Yposition Zposition Xrotation Yrotation Zrotation
											JOINT mixamorig:RightHandMiddle4
											{
												OFFSET -2.833900 0.000000 0.000000
												CHANNELS 6 Xposition Yposition Zposition Xrotation Yrotation Zrotation
												End Site
												{
													OFFSET 0.000000 2.833893 0.001318
												}
											}
										}
									}
								}
								JOINT mixamorig:RightHandIndex1
								{
									OFFSET -9.108299 -0.517853 2.259859
									CHANNELS 6 Xposition Yposition Zposition Xrotation Yrotation Zrotation
									JOINT mixamorig:RightHandIndex2
									{
										OFFSET -3.676399 0.000000 0.000000
										CHANNELS 6 Xposition Yposition Zposition Xrotation Yrotation Zrotation
										JOINT mixamorig:RightHandIndex3
										{
											OFFSET -2.883102 0.000000 0.000000
											CHANNELS 6 Xposition Yposition Zposition Xrotation Yrotation Zrotation
											JOINT mixamorig:RightHandIndex4
											{
												OFFSET -2.392700 0.000000 0.000000
												CHANNELS 6 Xposition Yposition Zposition Xrotation Yrotation Zrotation
												End Site
												{
													OFFSET 0.000000 2.392700 0.001113
												}
											}
										}
									}
								}
								JOINT mixamorig:RightHandThumb1
								{
									OFFSET -2.464798 -1.573944 2.681868
									CHANNELS 6 Xposition Yposition Zposition Xrotation Yrotation Zrotation
									JOINT mixamorig:RightHandThumb2
									{
										OFFSET -3.229782 -1.864716 1.864716
										CHANNELS 6 Xposition Yposition Zposition Xrotation Yrotation Zrotation
										JOINT mixamorig:RightHandThumb3
										{
											OFFSET -2.652542 -1.531448 1.531448
											CHANNELS 6 Xposition Yposition Zposition Xrotation Yrotation Zrotation
											JOINT mixamorig:RightHandThumb4
											{
												OFFSET -1.954605 -1.128494 1.128493
												CHANNELS 6 Xposition Yposition Zposition Xrotation Yrotation Zrotation
												End Site
												{
													OFFSET 0.000412 2.523392 0.000704
												}
											}
										}
									}
								}
							}
						}
					}
				}
			}
		}
	}
	JOINT mixamorig:LeftUpLeg
	{
		OFFSET 8.207800 -6.751701 -1.599600
		CHANNELS 6 Xposition Yposition Zposition Xrotation Yrotation Zrotation
		JOINT mixamorig:LeftLeg
		{
			OFFSET 0.000000 -44.370499 0.284600
			CHANNELS 6 Xposition Yposition Zposition Xrotation Yrotation Zrotation
			JOINT mixamorig:LeftFoot
			{
				OFFSET 0.000000 -44.427898 -2.982200
				CHANNELS 6 Xposition Yposition Zposition Xrotation Yrotation Zrotation
				JOINT mixamorig:LeftToeBase
				{
					OFFSET 0.000000 -8.728700 10.710600
					CHANNELS 6 Xposition Yposition Zposition Xrotation Yrotation Zrotation
					JOINT mixamorig:LeftToe_End
					{
						OFFSET 0.000000 -0.000700 9.278099
						CHANNELS 6 Xposition Yposition Zposition Xrotation Yrotation Zrotation
						End Site
						{
							OFFSET 0.000000 9.278100 0.000000
						}
					}
				}
			}
		}
	}
	JOINT mixamorig:RightUpLeg
	{
		OFFSET -8.207800 -6.751701 -1.599600
		CHANNELS 6 Xposition Yposition Zposition Xrotation Yrotation Zrotation
		JOINT mixamorig:RightLeg
		{
			OFFSET 0.000000 -44.370499 0.286200
			CHANNELS 6 Xposition Yposition Zposition Xrotation Yrotation Zrotation
			JOINT mixamorig:RightFoot
			{
				OFFSET 0.000000 -44.427700 -2.983800
				CHANNELS 6 Xposition Yposition Zposition Xrotation Yrotation Zrotation
				JOINT mixamorig:RightToeBase
				{
					OFFSET 0.000000 -8.728700 10.710600
					CHANNELS 6 Xposition Yposition Zposition Xrotation Yrotation Zrotation
					JOINT mixamorig:RightToe_End
					{
						OFFSET 0.000000 -0.000700 9.278100
						CHANNELS 6 Xposition Yposition Zposition Xrotation Yrotation Zrotation
						End Site
						{
							OFFSET 0.000000 9.278100 0.000000
						}
					}
				}
			}
		}
	}
}
MOTION
Frames: 3
Frame Time: 0.016667
-18.427387 198.621307 333.584991 4.185352 -6.577662 -29.131805 0.000021 10.181581 0.131492 10.771344 1.680857 3.464306 -0.000003 10.083488 -1.000831 21.595772 1.028031 3.124811 0.000004 9.100025 -1.373386 21.595762 1.028036 3.124811 0.000005 16.671736 -2.516202 21.370195 -2.777624 -17.563534 -0.000004 9.617907 1.685013 5.119373 -9.824195 24.828236 -0.000028 17.815170 2.584991 0.000000 0.000001 0.000001 3.067575 6.409485 9.283586 0.000000 0.000001 0.000001 -3.067636 6.409454 9.283484 0.000000 0.000001 0.000001 4.570405 10.946023 -2.627994 0.428954 8.324593 -8.435346 10.592413 -0.524610 -2.232120 -12.361076 47.918869 -23.077423 27.841476 0.000043 -0.000015 0.164996 -145.885710 0.144469 28.328810 0.000013 -0.000001 32.793186 0.426422 17.367108 2.466091 -1.576215 2.681694 -17.920333 -2.747201 -6.511343 3.229736 -1.864766 1.864717 -2.340261 0.591167 3.085752 2.652641 -1.531483 1.531491 0.000010 -0.000003 -0.000003 1.954631 -1.128538 1.128488 0.000001 0.000000 -0.000001 9.109259 -0.518111 2.259873 3.186253 0.023878 6.993295 3.676357 -0.000012 0.000004 0.023163 0.624899 -8.051186 2.883079 0.000046 -0.000006 0.000000 0.000000 0.000000 2.392692 -0.000015 -0.000008 0.000000 0.000000 0.000000 9.533392 0.000022 0.000003 -1.032694 4.498660 8.513876 3.698195 -0.000022 -0.000000 -0.026571 0.075561 -5.201708 2.950904 -0.000000 -0.000001 0.000000 -0.000000 0.000001 2.833908 -0.000030 -0.000001 0.000000 -0.000000 0.000000 9.104516 -0.043063 -1.865116 -11.330401 6.595578 5.274607 3.153978 -0.000016 0.000002 0.003708 -0.609003 -0.951794 2.937713 0.000011 0.000003 -0.000004 0.000001 -0.000003 2.647491 0.000016 0.000001 -0.000000 -0.000000 0.000000 8.077751 -0.486980 -3.806313 -8.930083 20.326165 9.246060 3.600001 -0.000000 -0.000016 0.254340 -8.158852 -4.964882 2.114227 -0.000000 -0.000002 0.000001 -0.000000 0.000000 1.975654 0.000014 -0.000001 -0.000000 -0.000000 0.000000 -4.569989 10.946222 -2.627994 0.399132 -2.830038 7.027097 -10.592804 -0.524781 -2.232057 -4.419462 20.496469 37.460084 -27.841505 -0.000018 0.000011 1.147414 110.794630 -0.301535 -28.328819 0.000021 0.000002 41.492255 -6.422445 -41.955639 -8.076695 -0.486717 -3.806232 -5.648455 -16.816923 2.449820 -3.599974 -0.000012 -0.000005 -0.017866 3.815260 5.180560 -2.114189 -0.000029 0.000004 0.000000 -0.000000 0.000000 -1.975716 -0.000001 0.000003 -0.000001 -0.000000 -0.000000 -9.103588 -0.043044 -1.865121 1.909379 -9.090109 4.168455 -3.154009 -0.000023 -0.000001 -0.008144 0.874757 3.613728 -2.937724 -0.000001 0.000001 -0.000000 0.000000 0.000001 -2.647493 -0.000000 0.000003 -0.000000 0.000000 0.000001 -9.532474 0.000022 -0.000002 -4.113839 -2.369598 2.030536 -3.698164 0.000010 0.000005 -0.036610 -0.044138 7.377760 -2.950896 0.000002 -0.000004 -0.000000 -0.000000 -0.000001 -2.833866 -0.000001 -0.000001 -0.000000 0.000000 -0.000002 -9.108284 -0.517818 2.259857 -4.713851 16.033886 7.292426 -3.676471 -0.000002 -0.000002 0.002065 -0.286357 0.028359 -2.883100 0.000001 0.000024 -0.000003 -0.000001 -0.000001 -2.392663 -0.000017 -0.000021 -0.000001 0.000002 0.000000 -2.464785 -1.573930 2.681867 -2.829910 27.996097 -22.103607 -3.229751 -1.864692 1.864746 -0.988452 -0.157726 -1.874239 -2.652505 -1.531404 1.531474 -0.000011 0.000012 0.000004 -1.954657 -1.128493 1.128460 0.000001 0.000002 -0.000001 8.207811 -6.751708 -1.599602 -72.866876 -21.226249 42.437311 0.000001 -44.370499 0.284604 95.195222 0.637242 -2.869120 -0.000030 -44.427853 -2.982179 -38.853005 -11.598041 -13.367064 -0.000015 -8.728692 10.710582 -3.144234 -0.404646 0.160453 -0.000002 -0.000720 9.278119 0.000001 -0.000002 -0.000000 -8.207786 -6.751722 -1.599621 -74.243139 -13.074955 4.216528 -0.000008 -44.370480 0.286180 100.810396 3.199185 2.953250 -0.000005 -44.427696 -2.983817 -16.060476 -1.505723 -4.662611 0.000006 -8.728692 10.710609 -20.089934 0.174633 -0.191503 -0.000002 -0.000725 9.278126 -0.000000 -0.000000 0.000001 
-17.876877 200.405731 334.443085 7.835946 -10.379191 -28.885939 0.000004 10.181601 0.131481 10.065587 2.166737 3.058830 -0.000004 10.083514 -1.000843 20.206956 1.834746 2.398556 -0.000009 9.100049 -1.373371 20.206944 1.834746 2.398557 0.000004 16.671749 -2.516195 19.978839 -2.495044 -17.280749 -0.000002 9.617896 1.684997 5.200363 -9.180669 23.907424 0.000000 17.815201 2.585019 -0.000000 0.000003 -0.000000 3.067602 6.409500 9.283598 -0.000000 0.000003 -0.000000 -3.067593 6.409515 9.283525 -0.000000 0.000003 -0.000000 4.570399 10.946038 -2.628010 0.554339 8.711373 -9.524292 10.592402 -0.524591 -2.232103 -7.377605 47.971560 -28.000442 27.841490 0.000034 -0.000019 -0.557154 -145.222936 -0.430727 28.328779 -0.000017 0.000003 36.674038 -1.684589 21.117258 2.466114 -1.576213 2.681693 -17.854982 -1.342478 -6.836337 3.229758 -1.864712 1.864717 -2.342602 0.592109 3.086921 2.652656 -1.531501 1.531493 0.000012 -0.000003 -0.000006 1.954568 -1.128509 1.128509 -0.000000 0.000000 -0.000000 9.109287 -0.518116 2.259870 3.171948 0.001176 7.080707 3.676347 -0.000006 -0.000004 0.019592 0.609623 -7.108732 2.883127 0.000015 0.000005 -0.000000 -0.000001 -0.000001 2.392702 0.000045 0.000007 -0.000000 -0.000001 -0.000001 9.533391 0.000007 0.000001 -1.029126 4.481811 8.736840 3.698225 -0.000009 -0.000001 -0.023864 0.107347 -4.811933 2.950919 -0.000000 0.000003 -0.000000 -0.000000 0.000001 2.833914 -0.000000 0.000003 -0.000000 -0.000000 0.000001 9.104509 -0.043085 -1.865117 -11.222899 6.604608 5.486907 3.154001 0.000006 0.000001 0.004259 -0.570875 -0.503830 2.937729 -0.000034 -0.000006 -0.000001 0.000001 -0.000003 2.647484 -0.000016 0.000003 0.000001 0.000000 -0.000000 8.077766 -0.486985 -3.806314 -8.911950 20.279564 9.568591 3.600047 -0.000008 -0.000010 0.270557 -8.139047 -4.567223 2.114134 0.000029 0.000004 -0.000001 0.000000 0.000001 1.975723 0.000015 0.000004 -0.000000 0.000000 -0.000000 -4.570004 10.946250 -2.627993 0.397515 -3.231659 7.262191 -10.592806 -0.524830 -2.232094 -2.574896 21.370291 38.387535 -27.841516 -0.000019 0.000010 1.122350 108.503456 -0.213060 -28.328821 0.000014 -0.000015 43.029987 -5.004213 -46.316073 -8.076738 -0.486716 -3.806233 -5.630094 -16.905965 2.530599 -3.599992 0.000017 -0.000001 -0.035642 3.977398 6.124980 -2.114188 -0.000030 -0.000004 0.000000 0.000000 -0.000001 -1.975676 -0.000016 -0.000008 0.000000 0.000000 -0.000001 -9.103601 -0.043031 -1.865124 1.982425 -9.078623 4.533305 -3.154011 -0.000014 0.000004 -0.009984 0.902372 3.869937 -2.937668 0.000015 0.000002 0.000000 -0.000000 -0.000000 -2.647529 -0.000000 0.000004 -0.000000 -0.000000 -0.000000 -9.532507 0.000005 -0.000002 -4.089483 -2.343026 2.407221 -3.698194 -0.000015 -0.000003 -0.038427 -0.029974 7.608041 -2.950902 0.000015 -0.000008 0.000000 0.000000 -0.000001 -2.833892 -0.000029 0.000005 0.000001 -0.000000 -0.000000 -9.108265 -0.517878 2.259860 -4.712435 16.032971 8.046418 -3.676418 -0.000002 -0.000006 0.002169 -0.245238 0.024238 -2.883107 -0.000014 0.000004 -0.000003 -0.000001 -0.000001 -2.392701 -0.000000 0.000008 -0.000000 0.000000 0.000000 -2.464771 -1.573950 2.681867 -3.291630 27.868692 -21.496502 -3.229776 -1.864688 1.864733 -0.984923 -0.156952 -1.868817 -2.652551 -1.531432 1.531436 -0.000011 0.000009 0.000004 -1.954596 -1.128490 1.128511 -0.000001 -0.000003 0.000003 8.207798 -6.751694 -1.599647 -73.703028 -21.134588 41.897405 -0.000014 -44.370510 0.284566 92.617816 0.546483 -2.827071 -0.000003 -44.427895 -2.982265 -38.654397 -7.225312 -13.154425 -0.000010 -8.728718 10.710635 -3.095218 -0.464926 0.098165 0.000016 -0.000694 9.278081 0.000000 0.000001 0.000001 -8.207806 -6.751691 -1.599626 -76.389266 -13.202087 1.336673 0.000004 -44.370518 0.286187 98.748334 3.303659 2.935178 0.000000 -44.427723 -2.983803 -15.601397 -3.869998 -4.754003 -0.000004 -8.728725 10.710567 -19.241338 -1.506840 0.423928 0.000006 -0.000698 9.278073 -0.000001 0.000001 0.000000 
-17.313812 202.540909 335.431793 11.283342 -13.809676 -28.337306 -0.000001 10.181600 0.131522 9.407488 2.623442 2.625561 0.000002 10.083513 -1.000787 18.917040 2.642055 1.614064 0.000004 9.099912 -1.373417 18.917032 2.642051 1.614059 -0.000003 16.671675 -2.516195 18.233931 -2.190614 -16.811508 0.000005 9.617881 1.685010 5.599172 -8.635745 22.998099 -0.000018 17.815186 2.585001 -0.000001 0.000000 -0.000000 3.067581 6.409531 9.283599 -0.000001 0.000000 -0.000000 -3.067619 6.409485 9.283491 -0.000001 0.000000 -0.000000 4.570393 10.945972 -2.628010 0.620261 8.749985 -10.088523 10.592407 -0.524555 -2.232122 -1.912408 46.450850 -33.265385 27.841488 0.000037 0.000003 -1.114421 -143.779744 -0.905194 28.328793 -0.000023 0.000006 41.427577 -2.897972 25.188749 2.466115 -1.576178 2.681690 -17.455129 -0.254909 -7.169739 3.229756 -1.864712 1.864729 -2.344878 0.592985 3.088002 2.652569 -1.531469 1.531490 0.000015 -0.000002 -0.000002 1.954652 -1.128508 1.128498 0.000000 -0.000001 -0.000000 9.109250 -0.518078 2.259864 3.160142 -0.053491 7.026347 3.676394 0.000019 0.000012 0.016636 0.596697 -6.308265 2.883120 0.000030 -0.000001 -0.000000 -0.000001 -0.000001 2.392664 0.000014 -0.000008 -0.000000 -0.000001 -0.000001 9.533394 0.000052 -0.000003 -1.019976 4.425712 8.798857 3.698167 -0.000015 0.000005 -0.022334 0.126847 -4.573166 2.950866 -0.000030 -0.000002 -0.000000 -0.000000 0.000000 2.833892 0.000015 -0.000000 -0.000000 -0.000000 0.000000 9.104507 -0.043028 -1.865122 -11.105095 6.600206 5.543600 3.153957 0.000002 -0.000002 0.004478 -0.545489 -0.205408 2.937667 -0.000019 -0.000003 -0.000002 0.000001 -0.000003 2.647491 -0.000015 -0.000002 0.000001 -0.000000 0.000000 8.077767 -0.486936 -3.806318 -8.875719 20.207584 9.730432 3.600053 0.000021 -0.000001 0.283606 -8.133423 -4.320550 2.114218 -0.000015 -0.000000 -0.000000 0.000000 0.000001 1.975684 0.000001 -0.000003 0.000000 0.000000 0.000000 -4.570009 10.946151 -2.628007 0.400573 -3.730459 7.667225 -10.592792 -0.524837 -2.232091 -1.137867 22.823226 39.403395 -27.841513 -0.000021 0.000016 1.096880 105.067796 -0.150731 -28.328773 -0.000015 0.000008 44.423308 -3.499181 -50.979132 -8.076701 -0.486706 -3.806234 -5.611531 -16.998165 2.587937 -3.600019 0.000015 0.000012 -0.055237 4.133627 7.036701 -2.114193 0.000001 0.000000 0.000000 0.000000 -0.000002 -1.975663 0.000046 -0.000001 0.000000 0.000000 0.000000 -9.103551 -0.043011 -1.865116 2.056789 -9.068849 4.874048 -3.154008 0.000007 -0.000001 -0.011626 0.926716 4.095342 -2.937714 0.000015 -0.000003 -0.000000 0.000000 0.000000 -2.647507 0.000001 -0.000001 -0.000000 0.000000 0.000000 -9.532476 0.000022 0.000002 -4.065449 -2.317601 2.760056 -3.698221 0.000029 0.000001 -0.040148 -0.017680 7.808263 -2.950973 -0.000013 0.000003 0.000000 -0.000000 -0.000000 -2.833847 -0.000016 -0.000003 -0.000001 0.000000 -0.000000 -9.108285 -0.517844 2.259860 -4.713113 16.037330 8.779278 -3.676374 0.000002 0.000038 0.001914 -0.200218 0.019717 -2.883070 0.000001 0.000006 -0.000002 -0.000003 -0.000001 -2.392653 0.000015 -0.000002 -0.000000 -0.000003 -0.000000 -2.464774 -1.573950 2.681874 -3.747328 27.723432 -20.894495 -3.229802 -1.864678 1.864709 -0.981435 -0.156243 -1.863419 -2.652518 -1.531435 1.531469 -0.000014 0.000014 0.000003 -1.954623 -1.128476 1.128494 0.000001 -0.000001 0.000001 8.207802 -6.751707 -1.599585 -73.915911 -20.604775 41.399149 0.000000 -44.370480 0.284537 89.396965 0.396046 -2.770927 -0.000012 -44.427940 -2.982192 -38.294822 -3.062627 -12.730292 -0.000012 -8.728703 10.710608 -3.080798 -0.479926 0.021867 0.000006 -0.000695 9.278076 0.000002 -0.000000 -0.000000 -8.207802 -6.751707 -1.599594 -77.253483 -13.064874 -1.534980 0.000001 -44.370499 0.286204 95.844479 3.186684 2.898313 0.000001 -44.427670 -2.983853 -15.218650 -5.991848 -3.567338 0.000017 -8.728708 10.710588 -18.045066 -1.717399 1.004748 0.000009 -0.000702 9.278103 -0.000001 -0.000001 0.000001 
